<svg xmlns="http://www.w3.org/2000/svg" width="3413.333" height="920" version="1.0" viewBox="0 0 2560 690"><path d="M164.4 22c3.6 33.5 5.1 106.5 6.2 300.5.6 106.2.2 134.7-2.6 172.9-2.2 30.1 2.7 68.2 10.9 84.5 3.2 6.3 10.5 13.6 12.4 12.5 4.5-2.6 19.9-15.6 29-24.3 27.4-26.5 51.7-62.1 67.7-99.4 23.8-55.6 31.7-115.4 23.5-178.4-4.1-31.3-20.5-82.2-37.9-117.8-18-36.7-36.2-61.8-71.2-98.5-17.3-18.2-21.5-24-31.7-44l-6.9-13.5.6 5.5zM1839.8 233.8c-3.6 4-9.2 17.2-7.3 17.2.3 0 5.1.7 10.8 1.5 22.5 3.4 29.5 6.2 33.6 13.6 2.1 3.7 2.5 6 3.2 20.3 1.1 21.6 1 140.5-.1 179.1-1 35-1.7 39.7-7.3 43.9-3.8 2.9-10.3 5.2-17.2 6.1-9.4 1.2-9.5 1.2-12.1 6.9-1.3 2.9-2.5 7.1-2.7 9.2l-.2 3.9 42.5.8c64.7 1.2 107.4.4 123.8-2.1 42.1-6.6 72.7-21.4 99.3-48.1 12.5-12.5 19.5-22.4 26.3-36.6 20.5-42.7 20.5-99.6.1-140.7-6.3-12.7-12.8-22-22.9-32.6-15.8-16.5-33-27.4-54.8-34.6-26.8-9-43.6-10.3-112.7-8.7-28.4.6-56.1.9-61.6.6-32-1.6-39.1-1.6-40.7.3zm141.3 21.3c34.3 3.4 59.3 14.4 80 35.1 16.1 16.2 26.4 36 32.1 62.1 2 8.9 2.2 13.2 2.3 33.7 0 25.2-.9 32.8-6 50.5-9.7 34.1-34.5 61.7-64.6 72.1-23.3 8-58.5 7-79-2.2-11.3-5.1-15.7-12.7-17-29.3-.9-12.5-1-192.1 0-206.3.7-11.7 2.4-14.1 10.5-15.6 7.1-1.3 29.4-1.4 41.7-.1zM2179.2 235.5c-2.1 2.7-6.2 12.5-6.2 14.9 0 .9 4.5 1.9 15.3 3.5 8.3 1.3 17 3.1 19.3 4.1 5.1 2.2 8.1 6.4 9.4 13.1 1.2 6.4 1.2 163.5 0 200.9-.5 14.6-1.4 28.3-2 30.5-1.9 6.4-5.2 9.1-14 11.5-4.3 1.1-10.8 2.3-14.5 2.7-5.3.5-6.9 1-8.5 3-2.4 3.1-5.2 11.6-4.8 14.5.4 2.8-5.9 2.6 80.8 3 65.5.3 66.7.3 78.5-2 43-8.1 75.3-28.1 90.3-56.2 5.9-10.8 8.3-20.2 8.9-34.5.6-15-1.1-23.8-6.8-35.4-9-18.2-26.7-31.8-52.4-40.3-5.2-1.7-9.5-3.4-9.5-3.7 0-.3 3.9-2.6 8.8-5.1 10.9-5.5 25-19 30-28.7 6.7-12.8 8.7-27.5 5.7-42.9-4.5-23.6-20.9-40.5-47.3-48.8-17.3-5.4-21.1-5.6-95.9-5.5-37.8.1-72-.2-75.9-.6-6.9-.7-7.1-.7-9.2 2zm137.8 23.4c26.2 6.6 39.9 21.5 43 46.7 2.8 22.2-5.5 42.4-20.8 50.7-9.8 5.3-16.1 6.2-45.4 6.1-21.6 0-26.9-.3-28.3-1.4-1.7-1.4-1.7-4.7-1-49.5.7-51.4 1-53.8 5.8-54.9 1.2-.2 10.3-.3 20.2-.1 14.3.2 19.7.7 26.5 2.4zm-2.3 126.6c13.4 1.8 28.1 6.4 37 11.6 7.9 4.7 18.2 15.1 22.1 22.6 4.8 9.1 7.2 19.7 7.2 31.7-.1 27.2-11.1 46.5-32.2 56.6-11.6 5.5-23.2 7.4-40.3 6.6-23.2-1.1-31.7-4.2-37.6-13.4-6.1-9.6-6.1-10-6.7-64.6-.4-47.3-.3-50 1.4-51.3 2.6-1.9 34-1.7 49.1.2zM1126 337.2c-8.9 3.6-37.5 11-51.5 13.3-10.8 1.8-14 3.2-15.7 7.1-1.9 4.1 1.5 7.4 10.8 10.6 10.2 3.6 19.7 8.4 22.6 11.5l2.3 2.5.3 46.3c.3 50.7-.6 76.3-2.9 80.9-2.2 4.6-5.8 6.5-14.9 8.3-12.4 2.3-12.8 2.5-13.5 7.6-.4 2.4-.3 6.3.2 8.7l.8 4.3 51.2.1 51.3.1 1.1-5c.6-2.8.9-6.8.7-9l-.3-4-10.5-1.7c-12.6-2-16.3-3.6-18.7-8-1.7-3-1.8-7.8-2.1-61.2-.4-66.4-.7-63.9 7.7-70.1 7.8-5.6 17.3-9.6 27.6-11.3 22.4-3.8 41.4 4.6 49.5 22.1 5.2 10.9 5.4 14.1 5.5 68.4 0 49.3 0 50.2-2.1 53-2.8 3.8-6.1 5.3-16.3 7-4.7.8-9 1.9-9.6 2.4-1.1 1.1-1.4 13.5-.4 15.9.6 1.3 7.1 1.5 51 1.4l50.4-.1 1.3-3.8c.7-2.2 1.2-6.2 1-9l-.3-5-8.7-1.7c-4.7-.9-11.3-2.7-14.5-4-9.4-3.7-8.9-.6-9.7-60.5-.9-63.5-1.8-70.8-10.8-88.7-4.4-8.7-17.3-21.3-26.1-25.5-13-6.2-27.4-7.6-41.3-4.1-11.3 2.9-30 12.5-42.6 22-5.8 4.4-11.2 8-11.8 8-.9 0-1-3.2-.5-13 .5-9.5.4-13.8-.5-16-.7-1.7-1.5-3-1.9-2.9-.3.1-4 1.5-8.1 3.1zM480 337.7c-8.6 3.3-38.6 10.9-50.8 12.8-10.1 1.6-14.5 3.7-15 7.1-.4 3.2 1.1 4.4 10.4 7.8 11.8 4.4 20.3 8.8 23.4 12.1l2.5 2.7.3 47.5c.3 54.6-.6 75.9-3.3 81.6-2.7 5.6-5.4 6.8-27.2 11.3-2.7.5-3.8 5.3-2.8 12l.7 4.7 12.3-.7c15.9-.9 60.5-1 75.6-.1l11.7.7 1.1-3.8c1.5-5.2 1.4-10.9-.1-12.2-.7-.5-3.5-1.3-6.1-1.6-14.5-2.1-20.8-5.6-22.7-12.5-.6-2.2-1-26.6-1-62 0-56 .1-58.5 1.9-61.5 2.6-4.2 15.8-12 26.8-15.9 7.9-2.8 10-3.1 19.8-3.1 9 0 12 .4 16.6 2.2 11 4.4 19.2 14 23.6 28 2 6.5 2.6 10.9 3.3 27.7 1 19.9-.2 79.3-1.6 84.5-1.1 3.9-4.1 7.6-7.1 8.9-1.6.6-7.1 1.9-12.3 2.9-8.1 1.6-9.7 2.2-10.7 4.3-1.4 2.6-1.5 6.9-.4 10.9l.7 2.4 49.7.1c40.5 0 49.8-.2 50.2-1.3 1.4-3.7 1.6-11.8.3-13.3-.7-.9-5.1-2.4-9.8-3.3-11.6-2.4-16.5-4.7-18.7-8.8-1.7-3.1-1.8-7-1.9-56.3 0-29.2-.4-56.9-.8-61.7l-.8-8.7 6.8-4.4c27.8-17.6 55.6-17.3 72.3.8 4.6 5 7.2 9.8 9.6 17.5 2.4 8.1 3.7 43.5 2.7 79.5-.7 27.5-.9 30.3-2.7 33.5-2.5 4.3-7.1 6.7-17.4 8.8-7.4 1.5-8.1 1.9-8.6 4.4-.4 1.5-.3 5.2 0 8.3.7 5.3.8 5.5 3.4 4.8 3.6-1 82.3-.9 89.3 0 5.6.8 5.8.8 6.8-1.8.5-1.4 1.1-5.1 1.2-8.2l.3-5.6-10.6-2.2c-12.4-2.7-18.2-5.4-21-9.8-2-3.1-2.1-4-1.4-48.7.7-50.2-.1-63.8-4.1-77.8-7.2-24.7-22.6-40.8-44-45.8-10-2.3-25.5-1.5-35.3 2-14.3 5-33.5 15.7-46.2 25.7-2 1.6-4.4 2.9-5.2 2.9-.8 0-3.6-2.8-6-6.3-9-12.6-21.6-21.8-33.7-24.6-19.8-4.6-46.6 4.3-74 24.5-3.8 2.8-7 4.4-8.3 4.2-2.1-.3-2.2-.7-2.2-13.8 0-7.4-.2-14.1-.3-14.8-.3-1.7-1.7-1.5-9.2 1.5zM912.9 336c-46.2 7.3-79.5 34.2-89.9 72.6-3.1 11.5-3.9 36.5-1.5 50.4 6.5 38.9 28.1 66 61.5 76.8 35.8 11.7 78.5 3.1 107.9-21.7 12.9-10.9 24.7-30.6 29.8-49.6 2.5-9.2 2.7-11.6 2.7-30.5.1-19.4 0-21-2.6-30.3-7.7-27.6-24.2-47.8-48.3-59.3-13.1-6.2-23.1-8.5-40-8.9-7.7-.2-16.5 0-19.6.5zm10.8 20.5c11.2 2.1 21 7.3 29.9 15.8 19.5 18.5 28.5 46 27.1 83.6-.9 25.6-6.2 41.6-17.3 52.1-3 2.8-8.4 6.5-12.1 8.3-5.9 2.7-8.1 3.2-16.9 3.5-11.7.5-19.5-1.1-29.4-6.1-8.2-4-22-17.6-27.3-26.7-17.3-30.1-20.4-78.9-6.6-106.3 3.8-7.4 13.5-17.3 20.4-20.7 10.3-5 19.2-6 32.2-3.5zM1412 336.5c-16.9 3.8-36.5 12.3-47.3 20.5-11.9 9-20.8 22.8-24.3 37.5-2.5 10.7-1.5 31.3 2 42.1 5.7 17.6 17.9 30.4 36.6 38.3 5.9 2.5 7.1 3.6 6.3 5.8-.6 1.6-10.4 8.3-23.5 16.2-4.8 2.9-9.5 5.9-10.3 6.7-2.3 2.4-1.8 7.5 1.6 14.2 3.7 7.4 10.5 13.8 19.7 18.4 3.7 1.9 6.8 4.1 6.9 4.9.1.8-4.4 4.7-10.3 8.9-36.8 25.9-44.2 38.7-36.3 61.8 7.5 21.9 27.4 37.6 55.5 43.8 10.4 2.3 36 2.3 49 0 45.2-7.9 83.4-38.1 93.4-73.8 2.4-8.4 2.9-23.9 1-30.9-4.1-15-15.3-27.4-30-33-7-2.7-25.9-5.5-49-7.4-10.7-.9-24.7-2-31-2.5-17.7-1.5-25-6.1-25-15.8 0-8 6.7-12.5 19.8-13.6 19.5-1.6 35.9-7.2 51.2-17.6 22.1-15.1 32-34.3 32-62 0-5.5-.7-13.5-1.6-17.6-.8-4.2-1.3-7.8-1-8.1.3-.3 4.2 0 8.8.7 7.4 1.1 9.1 1.1 14.3-.5 10.8-3.1 16.5-12.1 16.5-25.9 0-8.9-.8-9.5-6.4-5.2-12.3 9.3-32.6 9.7-58.1 1.1-7.1-2.4-15.7-5.1-19-6-8.6-2.3-33-2.9-41.5-1zm13.1 17.9c23.6 5 36.9 25.3 36.9 56.1 0 29.2-12.8 47.7-34 49.3-23.3 1.7-41-12.9-48.1-39.5-2.9-10.6-3.1-29.2-.5-37.8 2.6-8.7 5.9-14.5 10.8-19.2 9.5-9.1 20.5-11.9 34.9-8.9zm9.4 191.6c36.3 2.6 53.2 9.4 60.4 24.3 5.4 11.2 4.9 23.5-1.2 35.2-8.4 15.8-24.9 25-48.9 27.5-18.9 1.9-37.3-1-50.9-8.1-11.1-5.8-18.1-12.4-22.6-21.7-3.5-7-3.8-8.3-3.8-16.1 0-7.1.4-9.5 2.4-13.6 5.2-10.5 21.4-24.1 32.1-26.9 6.6-1.8 14-1.9 32.5-.6zM1664.5 336.1c-14.9 2.2-32 8-44.8 15.3-34.9 19.9-52.3 55.7-47.7 98.1 2.6 24.6 9.4 42.8 21.9 58.4 16.2 20.4 40 31.6 69.8 32.8 15.4.7 24.4-.5 38.2-4.9 20-6.4 32.9-13.8 45.1-26.2 13-13.2 20.4-26.5 25.8-46.5 2.3-8.7 2.5-11.4 2.6-29.1 0-18.1-.2-20.2-2.7-29.4-9.9-36.8-36.7-61.7-73.2-68.1-9.4-1.6-25.3-1.8-35-.4zm15.5 21.4c17.7 4.7 33.3 19 42.5 38.8 10.8 23.4 13.6 60.4 6.4 86.7-4.4 16.4-12.9 27.2-25.9 33.4-5.7 2.7-7.8 3.1-17 3.4-12.5.5-20.1-1.2-30.4-6.6-13.6-7.1-27-23.9-33.5-41.8-11.1-30.5-10.6-69.6 1.2-91.7 5.9-11.3 18.7-21.2 30.7-23.7 5.7-1.2 18.8-.4 26 1.5zM2496.5 462.3c-11.3 3.8-19.1 10.5-23.9 20.7-2.8 5.9-3.1 7.4-3.1 16 0 8.8.3 10.1 3.3 16.2 4 8.3 11.9 15.8 20 18.9 4.4 1.8 7.7 2.3 14.7 2.4 8.2 0 9.6-.3 15.6-3.2 8-4 15-11.1 18.7-19.1 2.3-4.9 2.7-7 2.6-14.7 0-11.5-2.6-18.3-9.5-26-7.3-7.9-15.6-11.8-26.2-12.2-5-.2-9.8.2-12.2 1zm24.9 5c6.7 3.1 13.4 9.6 16.6 16.2 3.6 7.2 4 19.8 1 27.7-2.9 7.9-9.6 15-17.8 19-5.9 2.9-7.6 3.3-14.8 3.2-7.1 0-9-.4-14.7-3.2-7.3-3.6-13.2-9.5-16.8-17-3.3-6.6-3.4-21.5-.3-28.3 4.1-8.9 12.7-16.2 22.7-19.5 6.2-2.1 17.4-1.1 24.1 1.9z"/><path d="M2493 498.9V523h5v-21h8.6l4.6 10.2c4.4 9.7 4.9 10.3 7.9 10.6 2.3.3 3 0 2.6-1-.3-.7-2.5-5.6-5-11l-4.6-9.6 3.1-1.3c2.1-.9 3.7-2.6 5-5.6 2.5-5.6 1.7-11.3-2.2-15.7-2.8-3.1-2.9-3.1-13.9-3.4l-11.1-.4v24.1zm21.6-16.4c.8 1 1.4 3.8 1.4 6.1 0 6.1-3.2 8.4-11.6 8.4h-6.4v-17.2l7.6.4c6 .3 7.9.7 9 2.3z"/></svg>