<svg xmlns="http://www.w3.org/2000/svg" width="1600" height="1600" version="1.0" viewBox="0 0 1200 1200"><path d="M574.5.7C403.8 8.9 250 84.7 140.8 214.2 68.8 299.7 21.4 405.8 6.1 516c-5.7 41.2-7.3 96.3-3.7 135 7.2 79.3 27.3 149.9 62.1 219 73.7 145.8 202.8 254.9 358.7 303.1 40.5 12.5 82.1 20.6 126.3 24.5 23.1 2.1 73.2 2.4 95 .6 81.5-6.7 153.3-26.6 223.6-61.7 159.6-79.9 275.9-227 315.9-399.5 11-47.3 15.4-86.8 15.4-137 0-31.9-.9-47.9-4.5-76-24.9-199-149.8-373.7-330.5-462.5C775.3 17.7 671.7-4 574.5.7zm-196 492.4c49.5 77.6 90.8 142.6 91.8 144.6 1 1.9 2.1 3.3 2.4 3 .2-.3 0-6.8-.6-14.4-.7-9.1-1.1-59.2-1.1-144.1V352h39.8l.6 144.2c.4 79.4.6 156.2.4 170.8l-.3 26.5h-49.7L371.9 554c-49.4-76.7-91.3-142.7-93.1-146.7-1.8-4-3.5-7.3-3.8-7.3-.3 0-.2 3.5.2 7.7.3 4.3.7 70.5.7 147L276 694h-40V352h26.3l26.2.1 90 141zM773 370v18H641v114h123v36H641v118h141v38H600V352h173v18zm277 0v18h-99v306h-40l-.2-152.8-.3-152.7-49.2-.3-49.3-.2v-36h238v18zM149.5 647.4c5.6 2.6 11.9 9 14.2 14.5.9 2 1.6 6.4 1.6 9.7.2 14.9-11.6 26.8-26.3 26.7-7.7 0-12.3-1.7-18-6.9-6.4-5.8-8.4-10.5-8.5-19.4 0-6.5.4-8.2 2.9-12.8 7-12.6 21.6-17.7 34.1-11.8zM469 774c3.6.6 9.8 2 13.8 3.2l7.2 2.1v9.5c0 8.6-.2 9.3-1.7 8.7-23.6-10-43.9-10.8-62-2.4-21.7 10.2-34.3 32.6-34.3 60.9 0 20.2 5.7 35.8 17.5 47.5 11.6 11.6 24.2 16 43.5 15.2 12.6-.5 20.2-2.2 29.9-6.7 3.5-1.7 6.5-3 6.7-3 .2 0 .4 4 .4 8.8v8.8l-7 2.7c-19.9 7.7-44.9 8.6-63.2 2.3-24.5-8.5-42.4-31.1-46.8-58.8-1.6-9.8-.8-31.1 1.4-39.2 8.5-31 30.8-52.7 60.6-59.1 7.8-1.6 25-1.9 34-.5zm118.4 45.1c8.2 2.7 18.8 10 23.1 15.9 8.3 11.4 12 23.5 11.9 40-.1 18.1-4.7 31.3-14.8 42.7-10.7 12-24 17.7-41.1 17.7-25.8 0-44.9-14.3-52.6-39.4-1.8-5.9-2.3-9.9-2.3-19-.1-12.7 1.2-19.3 5.6-28.9 5.9-13.2 16.3-22.9 30.3-28.1 11-4 29.1-4.5 39.9-.9zm202.9.9c18.5 7 28.3 23.1 29.4 48.7l.6 12.3h-79.6l.5 6.8c1.3 17.7 13.9 30.7 30.9 32 12 .8 26.5-3.1 35.9-9.8 1.6-1.1 3.1-2 3.4-2 .3 0 .6 3.8.6 8.4v8.5l-7.2 3.5c-11.4 5.6-17.9 6.8-33.7 6.4-13.6-.3-13.8-.3-21.5-4.1-13.9-6.9-23.2-19.3-27.2-36.2-2.5-10.9-1.6-30.6 1.9-40.5 4.9-13.7 14.9-25.7 26.2-31.5 11.4-5.7 28.2-6.8 39.8-2.5zm-81.4-.6c.7.5 1.1 4.2 1.1 9.8 0 8.2-.2 9-1.7 8.3-13.7-5.2-25.3-1.2-31.9 11-6 10.9-6.4 14.3-6.4 51.2V933h-19V820h19v21.4l2.7-5.3c3.6-6.9 12-14.6 18.1-16.6 4.6-1.5 15.8-1.5 18.1-.1z"/><path d="M558.4 833.9c-14.9 3.8-25.2 17-27.5 35.4-2.8 21.6 5.4 40.3 21 47.5 7.9 3.7 21.1 4.3 29.2 1.3 7.4-2.8 12.9-7.7 16.7-14.9 12.8-24 5-58.5-15.2-67.3-5.5-2.4-18.5-3.5-24.2-2zM767.9 834c-2.5.4-6.3 1.7-8.5 2.8-8.2 4.2-16.5 15.9-18 25.1l-.7 4.1h60.6l-.7-5.1c-.9-6.6-3.8-14.1-7.1-18.5-5-6.5-15.8-10.1-25.6-8.4z"/></svg>